<mxfile host="Electron" modified="2023-05-06T05:54:39.873Z" agent="Mozilla/5.0 (Macintosh; Intel Mac OS X 10_15_7) AppleWebKit/537.36 (KHTML, like Gecko) draw.io/21.2.1 Chrome/112.0.5615.87 Electron/24.1.2 Safari/537.36" etag="gmQFiyy2VODPSChSWBv4" version="21.2.1" type="device" pages="2">
  <diagram id="C5RBs43oDa-KdzZeNtuy" name="Page-1">
    <mxGraphModel dx="1026" dy="743" grid="1" gridSize="10" guides="1" tooltips="1" connect="1" arrows="1" fold="1" page="1" pageScale="1" pageWidth="1169" pageHeight="827" math="0" shadow="0">
      <root>
        <mxCell id="WIyWlLk6GJQsqaUBKTNV-0" />
        <mxCell id="WIyWlLk6GJQsqaUBKTNV-1" parent="WIyWlLk6GJQsqaUBKTNV-0" />
        <mxCell id="VVZd3F89jyTb9b7wtFSU-5" value="&lt;font style=&quot;font-size: 12px;&quot;&gt;CatalystInstance.cpp&lt;/font&gt;" style="shape=umlLifeline;perimeter=lifelinePerimeter;whiteSpace=wrap;html=1;container=1;dropTarget=0;collapsible=0;recursiveResize=0;outlineConnect=0;portConstraint=eastwest;newEdgeStyle={&quot;edgeStyle&quot;:&quot;elbowEdgeStyle&quot;,&quot;elbow&quot;:&quot;vertical&quot;,&quot;curved&quot;:0,&quot;rounded&quot;:0};" parent="WIyWlLk6GJQsqaUBKTNV-1" vertex="1">
          <mxGeometry x="50" y="90" width="130" height="490" as="geometry" />
        </mxCell>
        <mxCell id="VVZd3F89jyTb9b7wtFSU-6" value="&lt;font style=&quot;font-size: 12px;&quot;&gt;Instance.cpp&lt;/font&gt;" style="shape=umlLifeline;perimeter=lifelinePerimeter;whiteSpace=wrap;html=1;container=1;dropTarget=0;collapsible=0;recursiveResize=0;outlineConnect=0;portConstraint=eastwest;newEdgeStyle={&quot;edgeStyle&quot;:&quot;elbowEdgeStyle&quot;,&quot;elbow&quot;:&quot;vertical&quot;,&quot;curved&quot;:0,&quot;rounded&quot;:0};" parent="WIyWlLk6GJQsqaUBKTNV-1" vertex="1">
          <mxGeometry x="230" y="90" width="129" height="480" as="geometry" />
        </mxCell>
        <mxCell id="VVZd3F89jyTb9b7wtFSU-7" value="&lt;font style=&quot;font-size: 12px;&quot;&gt;NativeToJsBridge.cpp&lt;/font&gt;" style="shape=umlLifeline;perimeter=lifelinePerimeter;whiteSpace=wrap;html=1;container=1;dropTarget=0;collapsible=0;recursiveResize=0;outlineConnect=0;portConstraint=eastwest;newEdgeStyle={&quot;edgeStyle&quot;:&quot;elbowEdgeStyle&quot;,&quot;elbow&quot;:&quot;vertical&quot;,&quot;curved&quot;:0,&quot;rounded&quot;:0};" parent="WIyWlLk6GJQsqaUBKTNV-1" vertex="1">
          <mxGeometry x="440" y="90" width="129" height="300" as="geometry" />
        </mxCell>
        <mxCell id="VVZd3F89jyTb9b7wtFSU-8" value="&lt;font style=&quot;font-size: 12px;&quot;&gt;JSIExecutor.cpp&lt;/font&gt;" style="shape=umlLifeline;perimeter=lifelinePerimeter;whiteSpace=wrap;html=1;container=1;dropTarget=0;collapsible=0;recursiveResize=0;outlineConnect=0;portConstraint=eastwest;newEdgeStyle={&quot;edgeStyle&quot;:&quot;elbowEdgeStyle&quot;,&quot;elbow&quot;:&quot;vertical&quot;,&quot;curved&quot;:0,&quot;rounded&quot;:0};" parent="WIyWlLk6GJQsqaUBKTNV-1" vertex="1">
          <mxGeometry x="590" y="90" width="129" height="300" as="geometry" />
        </mxCell>
        <mxCell id="VVZd3F89jyTb9b7wtFSU-9" value="&lt;font style=&quot;font-size: 12px;&quot;&gt;Runtime.cpp&lt;/font&gt;" style="shape=umlLifeline;perimeter=lifelinePerimeter;whiteSpace=wrap;html=1;container=1;dropTarget=0;collapsible=0;recursiveResize=0;outlineConnect=0;portConstraint=eastwest;newEdgeStyle={&quot;edgeStyle&quot;:&quot;elbowEdgeStyle&quot;,&quot;elbow&quot;:&quot;vertical&quot;,&quot;curved&quot;:0,&quot;rounded&quot;:0};" parent="WIyWlLk6GJQsqaUBKTNV-1" vertex="1">
          <mxGeometry x="770" y="90" width="129" height="300" as="geometry" />
        </mxCell>
        <mxCell id="VVZd3F89jyTb9b7wtFSU-10" value="&lt;font style=&quot;font-size: 12px;&quot;&gt;HermesRuntime.cpp&lt;/font&gt;" style="shape=umlLifeline;perimeter=lifelinePerimeter;whiteSpace=wrap;html=1;container=1;dropTarget=0;collapsible=0;recursiveResize=0;outlineConnect=0;portConstraint=eastwest;newEdgeStyle={&quot;edgeStyle&quot;:&quot;elbowEdgeStyle&quot;,&quot;elbow&quot;:&quot;vertical&quot;,&quot;curved&quot;:0,&quot;rounded&quot;:0};" parent="WIyWlLk6GJQsqaUBKTNV-1" vertex="1">
          <mxGeometry x="950" y="90" width="129" height="300" as="geometry" />
        </mxCell>
      </root>
    </mxGraphModel>
  </diagram>
  <diagram id="Cf86KusrtjC9W6GZImzt" name="第 2 页">
    <mxGraphModel dx="5707" dy="743" grid="1" gridSize="10" guides="1" tooltips="1" connect="1" arrows="1" fold="1" page="1" pageScale="1" pageWidth="4681" pageHeight="3300" math="0" shadow="0">
      <root>
        <mxCell id="0" />
        <mxCell id="1" parent="0" />
        <mxCell id="_cNgt1535tOEZ04wpNIP-2" value="CatalystInstance C++" style="swimlane;fontStyle=1;align=center;verticalAlign=top;childLayout=stackLayout;horizontal=1;startSize=26;horizontalStack=0;resizeParent=1;resizeParentMax=0;resizeLast=0;collapsible=1;marginBottom=0;whiteSpace=wrap;html=1;" parent="1" vertex="1">
          <mxGeometry x="178" y="614" width="395" height="186" as="geometry" />
        </mxCell>
        <mxCell id="_cNgt1535tOEZ04wpNIP-3" value="+&amp;nbsp;instance_&lt;span style=&quot;background-color: initial;&quot;&gt;:&amp;nbsp;&lt;/span&gt;Instance" style="text;strokeColor=none;fillColor=none;align=left;verticalAlign=top;spacingLeft=4;spacingRight=4;overflow=hidden;rotatable=0;points=[[0,0.5],[1,0.5]];portConstraint=eastwest;whiteSpace=wrap;html=1;" parent="_cNgt1535tOEZ04wpNIP-2" vertex="1">
          <mxGeometry y="26" width="395" height="26" as="geometry" />
        </mxCell>
        <mxCell id="_cNgt1535tOEZ04wpNIP-11" value="+&amp;nbsp;moduleMessageQueue_:&amp;nbsp;shared_ptr&amp;lt;JMessageQueueThread&amp;gt;" style="text;strokeColor=none;fillColor=none;align=left;verticalAlign=top;spacingLeft=4;spacingRight=4;overflow=hidden;rotatable=0;points=[[0,0.5],[1,0.5]];portConstraint=eastwest;whiteSpace=wrap;html=1;" parent="_cNgt1535tOEZ04wpNIP-2" vertex="1">
          <mxGeometry y="52" width="395" height="26" as="geometry" />
        </mxCell>
        <mxCell id="_cNgt1535tOEZ04wpNIP-4" value="" style="line;strokeWidth=1;fillColor=none;align=left;verticalAlign=middle;spacingTop=-1;spacingLeft=3;spacingRight=3;rotatable=0;labelPosition=right;points=[];portConstraint=eastwest;strokeColor=inherit;" parent="_cNgt1535tOEZ04wpNIP-2" vertex="1">
          <mxGeometry y="78" width="395" height="4" as="geometry" />
        </mxCell>
        <mxCell id="_cNgt1535tOEZ04wpNIP-17" value="+ initHybrid()" style="text;strokeColor=none;fillColor=none;align=left;verticalAlign=top;spacingLeft=4;spacingRight=4;overflow=hidden;rotatable=0;points=[[0,0.5],[1,0.5]];portConstraint=eastwest;whiteSpace=wrap;html=1;" parent="_cNgt1535tOEZ04wpNIP-2" vertex="1">
          <mxGeometry y="82" width="395" height="26" as="geometry" />
        </mxCell>
        <mxCell id="_cNgt1535tOEZ04wpNIP-24" value="+&amp;nbsp;initializeBridge()" style="text;strokeColor=none;fillColor=none;align=left;verticalAlign=top;spacingLeft=4;spacingRight=4;overflow=hidden;rotatable=0;points=[[0,0.5],[1,0.5]];portConstraint=eastwest;whiteSpace=wrap;html=1;" parent="_cNgt1535tOEZ04wpNIP-2" vertex="1">
          <mxGeometry y="108" width="395" height="26" as="geometry" />
        </mxCell>
        <mxCell id="_cNgt1535tOEZ04wpNIP-25" value="+&amp;nbsp;jniLoadScriptFromFile()" style="text;strokeColor=none;fillColor=none;align=left;verticalAlign=top;spacingLeft=4;spacingRight=4;overflow=hidden;rotatable=0;points=[[0,0.5],[1,0.5]];portConstraint=eastwest;whiteSpace=wrap;html=1;" parent="_cNgt1535tOEZ04wpNIP-2" vertex="1">
          <mxGeometry y="134" width="395" height="26" as="geometry" />
        </mxCell>
        <mxCell id="_cNgt1535tOEZ04wpNIP-26" value="+&amp;nbsp;jniCallJsFunction()" style="text;strokeColor=none;fillColor=none;align=left;verticalAlign=top;spacingLeft=4;spacingRight=4;overflow=hidden;rotatable=0;points=[[0,0.5],[1,0.5]];portConstraint=eastwest;whiteSpace=wrap;html=1;" parent="_cNgt1535tOEZ04wpNIP-2" vertex="1">
          <mxGeometry y="160" width="395" height="26" as="geometry" />
        </mxCell>
        <mxCell id="_cNgt1535tOEZ04wpNIP-18" value="HybridClass&amp;lt;T&amp;gt; C++" style="swimlane;fontStyle=1;align=center;verticalAlign=top;childLayout=stackLayout;horizontal=1;startSize=26;horizontalStack=0;resizeParent=1;resizeParentMax=0;resizeLast=0;collapsible=1;marginBottom=0;whiteSpace=wrap;html=1;" parent="1" vertex="1">
          <mxGeometry x="265.5" y="474" width="220" height="78" as="geometry" />
        </mxCell>
        <mxCell id="_cNgt1535tOEZ04wpNIP-20" value="+&amp;nbsp;makeCxxInstance()" style="text;strokeColor=none;fillColor=none;align=left;verticalAlign=top;spacingLeft=4;spacingRight=4;overflow=hidden;rotatable=0;points=[[0,0.5],[1,0.5]];portConstraint=eastwest;whiteSpace=wrap;html=1;" parent="_cNgt1535tOEZ04wpNIP-18" vertex="1">
          <mxGeometry y="26" width="220" height="26" as="geometry" />
        </mxCell>
        <mxCell id="_cNgt1535tOEZ04wpNIP-22" value="+ makeHybridData()" style="text;strokeColor=none;fillColor=none;align=left;verticalAlign=top;spacingLeft=4;spacingRight=4;overflow=hidden;rotatable=0;points=[[0,0.5],[1,0.5]];portConstraint=eastwest;whiteSpace=wrap;html=1;" parent="_cNgt1535tOEZ04wpNIP-18" vertex="1">
          <mxGeometry y="52" width="220" height="26" as="geometry" />
        </mxCell>
        <mxCell id="_cNgt1535tOEZ04wpNIP-23" value="Extends" style="endArrow=block;endSize=16;endFill=0;html=1;rounded=0;exitX=0.5;exitY=0;exitDx=0;exitDy=0;" parent="1" source="_cNgt1535tOEZ04wpNIP-2" target="_cNgt1535tOEZ04wpNIP-22" edge="1">
          <mxGeometry width="160" relative="1" as="geometry">
            <mxPoint x="330.5" y="474" as="sourcePoint" />
            <mxPoint x="490.5" y="474" as="targetPoint" />
          </mxGeometry>
        </mxCell>
        <mxCell id="_cNgt1535tOEZ04wpNIP-27" value="CatalystInstance Java" style="swimlane;fontStyle=1;align=center;verticalAlign=top;childLayout=stackLayout;horizontal=1;startSize=26;horizontalStack=0;resizeParent=1;resizeParentMax=0;resizeLast=0;collapsible=1;marginBottom=0;whiteSpace=wrap;html=1;" parent="1" vertex="1">
          <mxGeometry x="166.75" y="114" width="402.5" height="212" as="geometry" />
        </mxCell>
        <mxCell id="_cNgt1535tOEZ04wpNIP-28" value="+ mHybridData&lt;span style=&quot;background-color: initial;&quot;&gt;:&amp;nbsp;&lt;/span&gt;HybridData" style="text;strokeColor=none;fillColor=none;align=left;verticalAlign=top;spacingLeft=4;spacingRight=4;overflow=hidden;rotatable=0;points=[[0,0.5],[1,0.5]];portConstraint=eastwest;whiteSpace=wrap;html=1;" parent="_cNgt1535tOEZ04wpNIP-27" vertex="1">
          <mxGeometry y="26" width="402.5" height="26" as="geometry" />
        </mxCell>
        <mxCell id="7D687suvQiOby7cYuaId-39" value="+ mReactQueueConfiguration&lt;span style=&quot;background-color: initial;&quot;&gt;:&amp;nbsp;&lt;/span&gt;ReactQueueConfiguration" style="text;strokeColor=none;fillColor=none;align=left;verticalAlign=top;spacingLeft=4;spacingRight=4;overflow=hidden;rotatable=0;points=[[0,0.5],[1,0.5]];portConstraint=eastwest;whiteSpace=wrap;html=1;" parent="_cNgt1535tOEZ04wpNIP-27" vertex="1">
          <mxGeometry y="52" width="402.5" height="26" as="geometry" />
        </mxCell>
        <mxCell id="_cNgt1535tOEZ04wpNIP-30" value="" style="line;strokeWidth=1;fillColor=none;align=left;verticalAlign=middle;spacingTop=-1;spacingLeft=3;spacingRight=3;rotatable=0;labelPosition=right;points=[];portConstraint=eastwest;strokeColor=inherit;" parent="_cNgt1535tOEZ04wpNIP-27" vertex="1">
          <mxGeometry y="78" width="402.5" height="4" as="geometry" />
        </mxCell>
        <mxCell id="7D687suvQiOby7cYuaId-51" value="+ initHybrid()" style="text;strokeColor=none;fillColor=none;align=left;verticalAlign=top;spacingLeft=4;spacingRight=4;overflow=hidden;rotatable=0;points=[[0,0.5],[1,0.5]];portConstraint=eastwest;whiteSpace=wrap;html=1;" parent="_cNgt1535tOEZ04wpNIP-27" vertex="1">
          <mxGeometry y="82" width="402.5" height="26" as="geometry" />
        </mxCell>
        <mxCell id="7D687suvQiOby7cYuaId-47" value="+ initializeBridge(callback, jsExecutor, jsQueue, moduleQueue···) jni call" style="text;strokeColor=none;fillColor=none;align=left;verticalAlign=top;spacingLeft=4;spacingRight=4;overflow=hidden;rotatable=0;points=[[0,0.5],[1,0.5]];portConstraint=eastwest;whiteSpace=wrap;html=1;" parent="_cNgt1535tOEZ04wpNIP-27" vertex="1">
          <mxGeometry y="108" width="402.5" height="26" as="geometry" />
        </mxCell>
        <mxCell id="7D687suvQiOby7cYuaId-49" value="+ jniCallJsFunction()" style="text;strokeColor=none;fillColor=none;align=left;verticalAlign=top;spacingLeft=4;spacingRight=4;overflow=hidden;rotatable=0;points=[[0,0.5],[1,0.5]];portConstraint=eastwest;whiteSpace=wrap;html=1;" parent="_cNgt1535tOEZ04wpNIP-27" vertex="1">
          <mxGeometry y="134" width="402.5" height="26" as="geometry" />
        </mxCell>
        <mxCell id="7D687suvQiOby7cYuaId-50" value="+ jniLoadScriptFromFile()" style="text;strokeColor=none;fillColor=none;align=left;verticalAlign=top;spacingLeft=4;spacingRight=4;overflow=hidden;rotatable=0;points=[[0,0.5],[1,0.5]];portConstraint=eastwest;whiteSpace=wrap;html=1;" parent="_cNgt1535tOEZ04wpNIP-27" vertex="1">
          <mxGeometry y="160" width="402.5" height="26" as="geometry" />
        </mxCell>
        <mxCell id="_cNgt1535tOEZ04wpNIP-31" value="+ destroy()" style="text;strokeColor=none;fillColor=none;align=left;verticalAlign=top;spacingLeft=4;spacingRight=4;overflow=hidden;rotatable=0;points=[[0,0.5],[1,0.5]];portConstraint=eastwest;whiteSpace=wrap;html=1;" parent="_cNgt1535tOEZ04wpNIP-27" vertex="1">
          <mxGeometry y="186" width="402.5" height="26" as="geometry" />
        </mxCell>
        <mxCell id="_cNgt1535tOEZ04wpNIP-37" value="Instance C++" style="swimlane;fontStyle=1;align=center;verticalAlign=top;childLayout=stackLayout;horizontal=1;startSize=26;horizontalStack=0;resizeParent=1;resizeParentMax=0;resizeLast=0;collapsible=1;marginBottom=0;whiteSpace=wrap;html=1;" parent="1" vertex="1">
          <mxGeometry x="749.8599999999999" y="640" width="230" height="52" as="geometry" />
        </mxCell>
        <mxCell id="_cNgt1535tOEZ04wpNIP-38" value="+&amp;nbsp;nativeToJsBridge_&lt;span style=&quot;background-color: initial;&quot;&gt;:&amp;nbsp;&lt;/span&gt;NativeToJsBridge" style="text;strokeColor=none;fillColor=none;align=left;verticalAlign=top;spacingLeft=4;spacingRight=4;overflow=hidden;rotatable=0;points=[[0,0.5],[1,0.5]];portConstraint=eastwest;whiteSpace=wrap;html=1;" parent="_cNgt1535tOEZ04wpNIP-37" vertex="1">
          <mxGeometry y="26" width="230" height="26" as="geometry" />
        </mxCell>
        <mxCell id="_cNgt1535tOEZ04wpNIP-45" value="Use" style="endArrow=open;endSize=12;dashed=1;html=1;rounded=0;entryX=0;entryY=0.25;entryDx=0;entryDy=0;exitX=1;exitY=0.5;exitDx=0;exitDy=0;" parent="1" source="_cNgt1535tOEZ04wpNIP-3" target="_cNgt1535tOEZ04wpNIP-37" edge="1">
          <mxGeometry x="0.0118" width="160" relative="1" as="geometry">
            <mxPoint x="573" y="534" as="sourcePoint" />
            <mxPoint x="658" y="534" as="targetPoint" />
            <mxPoint as="offset" />
          </mxGeometry>
        </mxCell>
        <mxCell id="7D687suvQiOby7cYuaId-1" value="Use" style="endArrow=open;endSize=12;dashed=1;html=1;rounded=0;entryX=0.5;entryY=0;entryDx=0;entryDy=0;" parent="1" source="_cNgt1535tOEZ04wpNIP-38" target="7D687suvQiOby7cYuaId-2" edge="1">
          <mxGeometry x="0.0588" width="160" relative="1" as="geometry">
            <mxPoint x="893" y="564" as="sourcePoint" />
            <mxPoint x="978" y="564" as="targetPoint" />
            <mxPoint as="offset" />
          </mxGeometry>
        </mxCell>
        <mxCell id="7D687suvQiOby7cYuaId-2" value="NativeToJsBridge&amp;nbsp;C++" style="swimlane;fontStyle=1;align=center;verticalAlign=top;childLayout=stackLayout;horizontal=1;startSize=26;horizontalStack=0;resizeParent=1;resizeParentMax=0;resizeLast=0;collapsible=1;marginBottom=0;whiteSpace=wrap;html=1;" parent="1" vertex="1">
          <mxGeometry x="658.93" y="834" width="411.87" height="104" as="geometry" />
        </mxCell>
        <mxCell id="7D687suvQiOby7cYuaId-3" value="+&amp;nbsp;m_delegate&lt;span style=&quot;background-color: initial;&quot;&gt;:&amp;nbsp;&lt;/span&gt;JsToNativeBridge" style="text;strokeColor=none;fillColor=none;align=left;verticalAlign=top;spacingLeft=4;spacingRight=4;overflow=hidden;rotatable=0;points=[[0,0.5],[1,0.5]];portConstraint=eastwest;whiteSpace=wrap;html=1;" parent="7D687suvQiOby7cYuaId-2" vertex="1">
          <mxGeometry y="26" width="411.87" height="26" as="geometry" />
        </mxCell>
        <mxCell id="7D687suvQiOby7cYuaId-4" value="+&amp;nbsp;m_executor&lt;span style=&quot;background-color: initial;&quot;&gt;:&amp;nbsp;&lt;/span&gt;JSExecutor" style="text;strokeColor=none;fillColor=none;align=left;verticalAlign=top;spacingLeft=4;spacingRight=4;overflow=hidden;rotatable=0;points=[[0,0.5],[1,0.5]];portConstraint=eastwest;whiteSpace=wrap;html=1;" parent="7D687suvQiOby7cYuaId-2" vertex="1">
          <mxGeometry y="52" width="411.87" height="26" as="geometry" />
        </mxCell>
        <mxCell id="7D687suvQiOby7cYuaId-10" value="+&amp;nbsp;m_executorMessageQueueThread&lt;span style=&quot;background-color: initial;&quot;&gt;:&amp;nbsp;&lt;/span&gt;MessageQueueThread— JSQueue" style="text;strokeColor=none;fillColor=none;align=left;verticalAlign=top;spacingLeft=4;spacingRight=4;overflow=hidden;rotatable=0;points=[[0,0.5],[1,0.5]];portConstraint=eastwest;whiteSpace=wrap;html=1;" parent="7D687suvQiOby7cYuaId-2" vertex="1">
          <mxGeometry y="78" width="411.87" height="26" as="geometry" />
        </mxCell>
        <mxCell id="7D687suvQiOby7cYuaId-11" value="Use" style="endArrow=open;endSize=12;dashed=1;html=1;rounded=0;exitX=1;exitY=0.5;exitDx=0;exitDy=0;entryX=-0.01;entryY=0.144;entryDx=0;entryDy=0;entryPerimeter=0;" parent="1" source="7D687suvQiOby7cYuaId-3" target="7D687suvQiOby7cYuaId-13" edge="1">
          <mxGeometry x="0.0588" width="160" relative="1" as="geometry">
            <mxPoint x="1038" y="520" as="sourcePoint" />
            <mxPoint x="1138" y="464" as="targetPoint" />
            <mxPoint as="offset" />
          </mxGeometry>
        </mxCell>
        <mxCell id="7D687suvQiOby7cYuaId-12" value="Use" style="endArrow=open;endSize=12;dashed=1;html=1;rounded=0;entryX=0;entryY=0.25;entryDx=0;entryDy=0;exitX=1;exitY=0.5;exitDx=0;exitDy=0;" parent="1" source="7D687suvQiOby7cYuaId-4" target="7D687suvQiOby7cYuaId-17" edge="1">
          <mxGeometry x="0.0588" width="160" relative="1" as="geometry">
            <mxPoint x="1053" y="624" as="sourcePoint" />
            <mxPoint x="1088" y="744" as="targetPoint" />
            <mxPoint as="offset" />
          </mxGeometry>
        </mxCell>
        <mxCell id="7D687suvQiOby7cYuaId-13" value="JsToNativeBridge C++" style="swimlane;fontStyle=1;align=center;verticalAlign=top;childLayout=stackLayout;horizontal=1;startSize=26;horizontalStack=0;resizeParent=1;resizeParentMax=0;resizeLast=0;collapsible=1;marginBottom=0;whiteSpace=wrap;html=1;" parent="1" vertex="1">
          <mxGeometry x="1118" y="724" width="395" height="108" as="geometry" />
        </mxCell>
        <mxCell id="7D687suvQiOby7cYuaId-14" value="+&amp;nbsp;m_registry&lt;span style=&quot;background-color: initial;&quot;&gt;:&amp;nbsp;&lt;/span&gt;ModuleRegistry" style="text;strokeColor=none;fillColor=none;align=left;verticalAlign=top;spacingLeft=4;spacingRight=4;overflow=hidden;rotatable=0;points=[[0,0.5],[1,0.5]];portConstraint=eastwest;whiteSpace=wrap;html=1;" parent="7D687suvQiOby7cYuaId-13" vertex="1">
          <mxGeometry y="26" width="395" height="26" as="geometry" />
        </mxCell>
        <mxCell id="7D687suvQiOby7cYuaId-15" value="+&amp;nbsp;m_callback&lt;span style=&quot;background-color: initial;&quot;&gt;:&amp;nbsp;&lt;/span&gt;InstanceCallback" style="text;strokeColor=none;fillColor=none;align=left;verticalAlign=top;spacingLeft=4;spacingRight=4;overflow=hidden;rotatable=0;points=[[0,0.5],[1,0.5]];portConstraint=eastwest;whiteSpace=wrap;html=1;" parent="7D687suvQiOby7cYuaId-13" vertex="1">
          <mxGeometry y="52" width="395" height="26" as="geometry" />
        </mxCell>
        <mxCell id="keU9zMHbELSz4Lj90eUI-1" value="" style="line;strokeWidth=1;fillColor=none;align=left;verticalAlign=middle;spacingTop=-1;spacingLeft=3;spacingRight=3;rotatable=0;labelPosition=right;points=[];portConstraint=eastwest;strokeColor=inherit;" vertex="1" parent="7D687suvQiOby7cYuaId-13">
          <mxGeometry y="78" width="395" height="4" as="geometry" />
        </mxCell>
        <mxCell id="7D687suvQiOby7cYuaId-16" value="+&amp;nbsp;callNativeModules()" style="text;strokeColor=none;fillColor=none;align=left;verticalAlign=top;spacingLeft=4;spacingRight=4;overflow=hidden;rotatable=0;points=[[0,0.5],[1,0.5]];portConstraint=eastwest;whiteSpace=wrap;html=1;" parent="7D687suvQiOby7cYuaId-13" vertex="1">
          <mxGeometry y="82" width="395" height="26" as="geometry" />
        </mxCell>
        <mxCell id="7D687suvQiOby7cYuaId-17" value="JSExecutor C++" style="swimlane;fontStyle=1;align=center;verticalAlign=top;childLayout=stackLayout;horizontal=1;startSize=26;horizontalStack=0;resizeParent=1;resizeParentMax=0;resizeLast=0;collapsible=1;marginBottom=0;whiteSpace=wrap;html=1;" parent="1" vertex="1">
          <mxGeometry x="1118" y="974" width="180" height="52" as="geometry" />
        </mxCell>
        <mxCell id="7D687suvQiOby7cYuaId-33" value="JSIExecutor C++" style="swimlane;fontStyle=1;align=center;verticalAlign=top;childLayout=stackLayout;horizontal=1;startSize=26;horizontalStack=0;resizeParent=1;resizeParentMax=0;resizeLast=0;collapsible=1;marginBottom=0;whiteSpace=wrap;html=1;" parent="1" vertex="1">
          <mxGeometry x="1048" y="1104" width="320" height="160" as="geometry" />
        </mxCell>
        <mxCell id="7D687suvQiOby7cYuaId-34" value="+&amp;nbsp;runtime_&lt;span style=&quot;background-color: initial;&quot;&gt;: jsi::&lt;/span&gt;Runtime" style="text;strokeColor=none;fillColor=none;align=left;verticalAlign=top;spacingLeft=4;spacingRight=4;overflow=hidden;rotatable=0;points=[[0,0.5],[1,0.5]];portConstraint=eastwest;whiteSpace=wrap;html=1;" parent="7D687suvQiOby7cYuaId-33" vertex="1">
          <mxGeometry y="26" width="320" height="26" as="geometry" />
        </mxCell>
        <mxCell id="7D687suvQiOby7cYuaId-35" value="+&amp;nbsp;delegate&lt;span style=&quot;background-color: initial;&quot;&gt;:&amp;nbsp;&lt;/span&gt;ExecutorDelegate" style="text;strokeColor=none;fillColor=none;align=left;verticalAlign=top;spacingLeft=4;spacingRight=4;overflow=hidden;rotatable=0;points=[[0,0.5],[1,0.5]];portConstraint=eastwest;whiteSpace=wrap;html=1;" parent="7D687suvQiOby7cYuaId-33" vertex="1">
          <mxGeometry y="52" width="320" height="26" as="geometry" />
        </mxCell>
        <mxCell id="7D687suvQiOby7cYuaId-36" value="+&amp;nbsp;callFunctionReturnFlushedQueue_&lt;span style=&quot;background-color: initial;&quot;&gt;:&amp;nbsp;&lt;/span&gt;&lt;span style=&quot;background-color: initial;&quot;&gt;Function&lt;/span&gt;" style="text;strokeColor=none;fillColor=none;align=left;verticalAlign=top;spacingLeft=4;spacingRight=4;overflow=hidden;rotatable=0;points=[[0,0.5],[1,0.5]];portConstraint=eastwest;whiteSpace=wrap;html=1;" parent="7D687suvQiOby7cYuaId-33" vertex="1">
          <mxGeometry y="78" width="320" height="26" as="geometry" />
        </mxCell>
        <mxCell id="Jx-X8a7luxKuR9kdIQgs-26" value="" style="line;strokeWidth=1;fillColor=none;align=left;verticalAlign=middle;spacingTop=-1;spacingLeft=3;spacingRight=3;rotatable=0;labelPosition=right;points=[];portConstraint=eastwest;strokeColor=inherit;" parent="7D687suvQiOby7cYuaId-33" vertex="1">
          <mxGeometry y="104" width="320" height="4" as="geometry" />
        </mxCell>
        <mxCell id="Jx-X8a7luxKuR9kdIQgs-24" value="+&amp;nbsp;callNativeModules()" style="text;strokeColor=none;fillColor=none;align=left;verticalAlign=top;spacingLeft=4;spacingRight=4;overflow=hidden;rotatable=0;points=[[0,0.5],[1,0.5]];portConstraint=eastwest;whiteSpace=wrap;html=1;" parent="7D687suvQiOby7cYuaId-33" vertex="1">
          <mxGeometry y="108" width="320" height="26" as="geometry" />
        </mxCell>
        <mxCell id="Jx-X8a7luxKuR9kdIQgs-25" value="+&amp;nbsp;nativeCallSyncHook&lt;span style=&quot;background-color: initial;&quot;&gt;(): Value&lt;/span&gt;" style="text;strokeColor=none;fillColor=none;align=left;verticalAlign=top;spacingLeft=4;spacingRight=4;overflow=hidden;rotatable=0;points=[[0,0.5],[1,0.5]];portConstraint=eastwest;whiteSpace=wrap;html=1;" parent="7D687suvQiOby7cYuaId-33" vertex="1">
          <mxGeometry y="134" width="320" height="26" as="geometry" />
        </mxCell>
        <mxCell id="7D687suvQiOby7cYuaId-40" value="ReactQueueConfigurationImpl&amp;nbsp;Java" style="swimlane;fontStyle=1;align=center;verticalAlign=top;childLayout=stackLayout;horizontal=1;startSize=26;horizontalStack=0;resizeParent=1;resizeParentMax=0;resizeLast=0;collapsible=1;marginBottom=0;whiteSpace=wrap;html=1;" parent="1" vertex="1">
          <mxGeometry x="648" y="214" width="402.5" height="104" as="geometry" />
        </mxCell>
        <mxCell id="7D687suvQiOby7cYuaId-41" value="+&amp;nbsp;mUIQueueThread&lt;span style=&quot;background-color: initial;&quot;&gt;:&amp;nbsp;&lt;/span&gt;MessageQueueThreadImpl" style="text;strokeColor=none;fillColor=none;align=left;verticalAlign=top;spacingLeft=4;spacingRight=4;overflow=hidden;rotatable=0;points=[[0,0.5],[1,0.5]];portConstraint=eastwest;whiteSpace=wrap;html=1;" parent="7D687suvQiOby7cYuaId-40" vertex="1">
          <mxGeometry y="26" width="402.5" height="26" as="geometry" />
        </mxCell>
        <mxCell id="7D687suvQiOby7cYuaId-42" value="+&amp;nbsp;mNativeModulesQueueThread&lt;span style=&quot;background-color: initial;&quot;&gt;:&amp;nbsp;&lt;/span&gt;MessageQueueThreadImpl" style="text;strokeColor=none;fillColor=none;align=left;verticalAlign=top;spacingLeft=4;spacingRight=4;overflow=hidden;rotatable=0;points=[[0,0.5],[1,0.5]];portConstraint=eastwest;whiteSpace=wrap;html=1;" parent="7D687suvQiOby7cYuaId-40" vertex="1">
          <mxGeometry y="52" width="402.5" height="26" as="geometry" />
        </mxCell>
        <mxCell id="7D687suvQiOby7cYuaId-45" value="+&amp;nbsp;mJSQueueThread&lt;span style=&quot;background-color: initial;&quot;&gt;:&amp;nbsp;&lt;/span&gt;MessageQueueThreadImpl" style="text;strokeColor=none;fillColor=none;align=left;verticalAlign=top;spacingLeft=4;spacingRight=4;overflow=hidden;rotatable=0;points=[[0,0.5],[1,0.5]];portConstraint=eastwest;whiteSpace=wrap;html=1;" parent="7D687suvQiOby7cYuaId-40" vertex="1">
          <mxGeometry y="78" width="402.5" height="26" as="geometry" />
        </mxCell>
        <mxCell id="7D687suvQiOby7cYuaId-46" value="Use" style="endArrow=open;endSize=12;dashed=1;html=1;rounded=0;exitX=1;exitY=0.5;exitDx=0;exitDy=0;entryX=-0.002;entryY=0.135;entryDx=0;entryDy=0;entryPerimeter=0;" parent="1" source="7D687suvQiOby7cYuaId-39" target="7D687suvQiOby7cYuaId-40" edge="1">
          <mxGeometry x="0.0118" width="160" relative="1" as="geometry">
            <mxPoint x="618" y="181" as="sourcePoint" />
            <mxPoint x="638" y="174" as="targetPoint" />
            <mxPoint as="offset" />
          </mxGeometry>
        </mxCell>
        <mxCell id="Jx-X8a7luxKuR9kdIQgs-1" value="HermesRuntime C++" style="swimlane;fontStyle=1;align=center;verticalAlign=top;childLayout=stackLayout;horizontal=1;startSize=26;horizontalStack=0;resizeParent=1;resizeParentMax=0;resizeLast=0;collapsible=1;marginBottom=0;whiteSpace=wrap;html=1;" parent="1" vertex="1">
          <mxGeometry x="1508" y="974" width="320" height="62" as="geometry" />
        </mxCell>
        <mxCell id="Jx-X8a7luxKuR9kdIQgs-5" value="V8Runtime C++" style="swimlane;fontStyle=1;align=center;verticalAlign=top;childLayout=stackLayout;horizontal=1;startSize=26;horizontalStack=0;resizeParent=1;resizeParentMax=0;resizeLast=0;collapsible=1;marginBottom=0;whiteSpace=wrap;html=1;" parent="1" vertex="1">
          <mxGeometry x="1508" y="1111.5" width="320" height="63" as="geometry" />
        </mxCell>
        <mxCell id="Jx-X8a7luxKuR9kdIQgs-9" value="JSCRuntime C++" style="swimlane;fontStyle=1;align=center;verticalAlign=top;childLayout=stackLayout;horizontal=1;startSize=26;horizontalStack=0;resizeParent=1;resizeParentMax=0;resizeLast=0;collapsible=1;marginBottom=0;whiteSpace=wrap;html=1;" parent="1" vertex="1">
          <mxGeometry x="1508" y="1244" width="320" height="60" as="geometry" />
        </mxCell>
        <mxCell id="Jx-X8a7luxKuR9kdIQgs-14" value="" style="shape=image;imageAspect=0;aspect=fixed;verticalLabelPosition=bottom;verticalAlign=top;image=https://p3-juejin.byteimg.com/tos-cn-i-k3u1fbpfcp/acfd96426b1d4449aeb998b05bf427f5~tplv-k3u1fbpfcp-zoom-in-crop-mark:4536:0:0:0.awebp?;" parent="1" vertex="1">
          <mxGeometry x="1048" y="1404" width="764.08" height="360" as="geometry" />
        </mxCell>
        <mxCell id="Jx-X8a7luxKuR9kdIQgs-15" value="" style="endArrow=open;endSize=12;dashed=1;html=1;rounded=0;exitX=1;exitY=0.5;exitDx=0;exitDy=0;entryX=0;entryY=0.5;entryDx=0;entryDy=0;" parent="1" source="7D687suvQiOby7cYuaId-34" target="Jx-X8a7luxKuR9kdIQgs-5" edge="1">
          <mxGeometry x="0.0588" width="160" relative="1" as="geometry">
            <mxPoint x="1378" y="898.5" as="sourcePoint" />
            <mxPoint x="1488" y="886" as="targetPoint" />
            <mxPoint as="offset" />
          </mxGeometry>
        </mxCell>
        <mxCell id="Jx-X8a7luxKuR9kdIQgs-42" value="Use" style="edgeLabel;html=1;align=center;verticalAlign=middle;resizable=0;points=[];" parent="Jx-X8a7luxKuR9kdIQgs-15" vertex="1" connectable="0">
          <mxGeometry x="-0.3" y="-2" relative="1" as="geometry">
            <mxPoint x="-29" y="-11" as="offset" />
          </mxGeometry>
        </mxCell>
        <mxCell id="Jx-X8a7luxKuR9kdIQgs-16" value="Extends" style="endArrow=block;endSize=16;endFill=0;html=1;rounded=0;exitX=0.5;exitY=0;exitDx=0;exitDy=0;entryX=0.5;entryY=1;entryDx=0;entryDy=0;" parent="1" source="7D687suvQiOby7cYuaId-33" target="7D687suvQiOby7cYuaId-17" edge="1">
          <mxGeometry width="160" relative="1" as="geometry">
            <mxPoint x="1218" y="949" as="sourcePoint" />
            <mxPoint x="1221" y="797" as="targetPoint" />
          </mxGeometry>
        </mxCell>
        <mxCell id="Jx-X8a7luxKuR9kdIQgs-18" style="edgeStyle=orthogonalEdgeStyle;rounded=0;orthogonalLoop=1;jettySize=auto;html=1;exitX=0;exitY=0.5;exitDx=0;exitDy=0;entryX=0;entryY=0.5;entryDx=0;entryDy=0;dashed=1;" parent="1" source="_cNgt1535tOEZ04wpNIP-22" target="_cNgt1535tOEZ04wpNIP-28" edge="1">
          <mxGeometry relative="1" as="geometry" />
        </mxCell>
        <mxCell id="Jx-X8a7luxKuR9kdIQgs-20" value="HybridData Java" style="swimlane;fontStyle=1;align=center;verticalAlign=top;childLayout=stackLayout;horizontal=1;startSize=26;horizontalStack=0;resizeParent=1;resizeParentMax=0;resizeLast=0;collapsible=1;marginBottom=0;whiteSpace=wrap;html=1;" parent="1" vertex="1">
          <mxGeometry x="648" y="74" width="402.5" height="82" as="geometry" />
        </mxCell>
        <mxCell id="Jx-X8a7luxKuR9kdIQgs-21" value="+ mDestructor&lt;span style=&quot;background-color: initial;&quot;&gt;:&amp;nbsp;&lt;/span&gt;Destructor" style="text;strokeColor=none;fillColor=none;align=left;verticalAlign=top;spacingLeft=4;spacingRight=4;overflow=hidden;rotatable=0;points=[[0,0.5],[1,0.5]];portConstraint=eastwest;whiteSpace=wrap;html=1;" parent="Jx-X8a7luxKuR9kdIQgs-20" vertex="1">
          <mxGeometry y="26" width="402.5" height="26" as="geometry" />
        </mxCell>
        <mxCell id="Jx-X8a7luxKuR9kdIQgs-32" value="" style="line;strokeWidth=1;fillColor=none;align=left;verticalAlign=middle;spacingTop=-1;spacingLeft=3;spacingRight=3;rotatable=0;labelPosition=right;points=[];portConstraint=eastwest;strokeColor=inherit;" parent="Jx-X8a7luxKuR9kdIQgs-20" vertex="1">
          <mxGeometry y="52" width="402.5" height="4" as="geometry" />
        </mxCell>
        <mxCell id="Jx-X8a7luxKuR9kdIQgs-28" value="+&amp;nbsp;resetNative&lt;span style=&quot;background-color: initial;&quot;&gt;()&amp;nbsp;&lt;/span&gt;" style="text;strokeColor=none;fillColor=none;align=left;verticalAlign=top;spacingLeft=4;spacingRight=4;overflow=hidden;rotatable=0;points=[[0,0.5],[1,0.5]];portConstraint=eastwest;whiteSpace=wrap;html=1;" parent="Jx-X8a7luxKuR9kdIQgs-20" vertex="1">
          <mxGeometry y="56" width="402.5" height="26" as="geometry" />
        </mxCell>
        <mxCell id="Jx-X8a7luxKuR9kdIQgs-27" value="Use" style="endArrow=open;endSize=12;dashed=1;html=1;rounded=0;exitX=1;exitY=0.5;exitDx=0;exitDy=0;entryX=0.007;entryY=-0.192;entryDx=0;entryDy=0;entryPerimeter=0;" parent="1" source="_cNgt1535tOEZ04wpNIP-28" target="Jx-X8a7luxKuR9kdIQgs-21" edge="1">
          <mxGeometry x="0.0118" width="160" relative="1" as="geometry">
            <mxPoint x="579" y="189" as="sourcePoint" />
            <mxPoint x="668" y="328" as="targetPoint" />
            <mxPoint as="offset" />
          </mxGeometry>
        </mxCell>
        <mxCell id="Jx-X8a7luxKuR9kdIQgs-33" value="Destructor&amp;nbsp;Java" style="swimlane;fontStyle=1;align=center;verticalAlign=top;childLayout=stackLayout;horizontal=1;startSize=26;horizontalStack=0;resizeParent=1;resizeParentMax=0;resizeLast=0;collapsible=1;marginBottom=0;whiteSpace=wrap;html=1;" parent="1" vertex="1">
          <mxGeometry x="1105.5" y="74" width="402.5" height="108" as="geometry" />
        </mxCell>
        <mxCell id="Jx-X8a7luxKuR9kdIQgs-34" value="+&amp;nbsp;mNativePointer&lt;span style=&quot;background-color: initial;&quot;&gt;:&amp;nbsp;&lt;/span&gt;long" style="text;strokeColor=none;fillColor=none;align=left;verticalAlign=top;spacingLeft=4;spacingRight=4;overflow=hidden;rotatable=0;points=[[0,0.5],[1,0.5]];portConstraint=eastwest;whiteSpace=wrap;html=1;" parent="Jx-X8a7luxKuR9kdIQgs-33" vertex="1">
          <mxGeometry y="26" width="402.5" height="26" as="geometry" />
        </mxCell>
        <mxCell id="Jx-X8a7luxKuR9kdIQgs-35" value="" style="line;strokeWidth=1;fillColor=none;align=left;verticalAlign=middle;spacingTop=-1;spacingLeft=3;spacingRight=3;rotatable=0;labelPosition=right;points=[];portConstraint=eastwest;strokeColor=inherit;" parent="Jx-X8a7luxKuR9kdIQgs-33" vertex="1">
          <mxGeometry y="52" width="402.5" height="4" as="geometry" />
        </mxCell>
        <mxCell id="Jx-X8a7luxKuR9kdIQgs-36" value="+&amp;nbsp;destruct&lt;span style=&quot;background-color: initial;&quot;&gt;()&amp;nbsp;&lt;/span&gt;" style="text;strokeColor=none;fillColor=none;align=left;verticalAlign=top;spacingLeft=4;spacingRight=4;overflow=hidden;rotatable=0;points=[[0,0.5],[1,0.5]];portConstraint=eastwest;whiteSpace=wrap;html=1;" parent="Jx-X8a7luxKuR9kdIQgs-33" vertex="1">
          <mxGeometry y="56" width="402.5" height="26" as="geometry" />
        </mxCell>
        <mxCell id="Jx-X8a7luxKuR9kdIQgs-37" value="+&amp;nbsp;deleteNative&lt;span style=&quot;background-color: initial;&quot;&gt;(long pointer)&amp;nbsp;&lt;/span&gt;" style="text;strokeColor=none;fillColor=none;align=left;verticalAlign=top;spacingLeft=4;spacingRight=4;overflow=hidden;rotatable=0;points=[[0,0.5],[1,0.5]];portConstraint=eastwest;whiteSpace=wrap;html=1;" parent="Jx-X8a7luxKuR9kdIQgs-33" vertex="1">
          <mxGeometry y="82" width="402.5" height="26" as="geometry" />
        </mxCell>
        <mxCell id="Jx-X8a7luxKuR9kdIQgs-38" value="Use" style="endArrow=open;endSize=12;dashed=1;html=1;rounded=0;exitX=1;exitY=0.5;exitDx=0;exitDy=0;entryX=0;entryY=0.5;entryDx=0;entryDy=0;" parent="1" source="Jx-X8a7luxKuR9kdIQgs-21" target="Jx-X8a7luxKuR9kdIQgs-34" edge="1">
          <mxGeometry x="0.0118" width="160" relative="1" as="geometry">
            <mxPoint x="579" y="163" as="sourcePoint" />
            <mxPoint x="661" y="105" as="targetPoint" />
            <mxPoint as="offset" />
          </mxGeometry>
        </mxCell>
        <mxCell id="Jx-X8a7luxKuR9kdIQgs-40" value="" style="endArrow=none;dashed=1;html=1;rounded=0;strokeWidth=4;" parent="1" edge="1">
          <mxGeometry width="50" height="50" relative="1" as="geometry">
            <mxPoint y="410" as="sourcePoint" />
            <mxPoint x="1560" y="410" as="targetPoint" />
          </mxGeometry>
        </mxCell>
        <mxCell id="Jx-X8a7luxKuR9kdIQgs-44" value="&lt;font style=&quot;font-size: 18px;&quot;&gt;fbjni&lt;/font&gt;" style="edgeLabel;html=1;align=center;verticalAlign=middle;resizable=0;points=[];" parent="Jx-X8a7luxKuR9kdIQgs-40" vertex="1" connectable="0">
          <mxGeometry x="-0.8567" y="-5" relative="1" as="geometry">
            <mxPoint x="108" y="15" as="offset" />
          </mxGeometry>
        </mxCell>
        <mxCell id="Jx-X8a7luxKuR9kdIQgs-41" value="" style="endArrow=none;dashed=1;html=1;rounded=0;strokeWidth=4;" parent="1" edge="1">
          <mxGeometry width="50" height="50" relative="1" as="geometry">
            <mxPoint x="1438" y="1394" as="sourcePoint" />
            <mxPoint x="1438" y="954" as="targetPoint" />
          </mxGeometry>
        </mxCell>
        <mxCell id="Jx-X8a7luxKuR9kdIQgs-43" value="&lt;font style=&quot;font-size: 16px;&quot;&gt;JSI&lt;/font&gt;" style="edgeLabel;html=1;align=center;verticalAlign=middle;resizable=0;points=[];" parent="Jx-X8a7luxKuR9kdIQgs-41" vertex="1" connectable="0">
          <mxGeometry x="-0.2" y="-1" relative="1" as="geometry">
            <mxPoint x="19" y="-23" as="offset" />
          </mxGeometry>
        </mxCell>
        <mxCell id="Jx-X8a7luxKuR9kdIQgs-47" value="&lt;font size=&quot;1&quot; style=&quot;&quot;&gt;&lt;b style=&quot;font-size: 18px;&quot;&gt;JAVA&lt;/b&gt;&lt;/font&gt;" style="text;html=1;strokeColor=none;fillColor=none;align=center;verticalAlign=middle;whiteSpace=wrap;rounded=0;" parent="1" vertex="1">
          <mxGeometry y="350" width="60" height="30" as="geometry" />
        </mxCell>
        <mxCell id="Jx-X8a7luxKuR9kdIQgs-50" value="&lt;font size=&quot;1&quot; style=&quot;&quot;&gt;&lt;b style=&quot;font-size: 18px;&quot;&gt;C++&lt;/b&gt;&lt;/font&gt;" style="text;html=1;strokeColor=none;fillColor=none;align=center;verticalAlign=middle;whiteSpace=wrap;rounded=0;" parent="1" vertex="1">
          <mxGeometry y="444" width="60" height="30" as="geometry" />
        </mxCell>
        <mxCell id="keU9zMHbELSz4Lj90eUI-2" value="ExecutorDelegate&amp;nbsp;C++" style="swimlane;fontStyle=1;align=center;verticalAlign=top;childLayout=stackLayout;horizontal=1;startSize=26;horizontalStack=0;resizeParent=1;resizeParentMax=0;resizeLast=0;collapsible=1;marginBottom=0;whiteSpace=wrap;html=1;" vertex="1" parent="1">
          <mxGeometry x="1225.5" y="588" width="180" height="52" as="geometry" />
        </mxCell>
        <mxCell id="keU9zMHbELSz4Lj90eUI-3" value="Extends" style="endArrow=block;endSize=16;endFill=0;html=1;rounded=0;entryX=0.5;entryY=1;entryDx=0;entryDy=0;exitX=0.5;exitY=0;exitDx=0;exitDy=0;" edge="1" parent="1" source="7D687suvQiOby7cYuaId-13" target="keU9zMHbELSz4Lj90eUI-2">
          <mxGeometry width="160" relative="1" as="geometry">
            <mxPoint x="1160" y="810" as="sourcePoint" />
            <mxPoint x="1320" y="810" as="targetPoint" />
          </mxGeometry>
        </mxCell>
      </root>
    </mxGraphModel>
  </diagram>
</mxfile>
